name Walk2.mot
datacolumns 19
datarows 15
range 2.63600000 2.65000000
endheader

                time	   L_ground_force_vx	   L_ground_force_vy	   L_ground_force_vz	   L_ground_force_px	   L_ground_force_py	   L_ground_force_pz	   R_ground_force_vx	   R_ground_force_vy	   R_ground_force_vz	   R_ground_force_px	   R_ground_force_py	   R_ground_force_pz	   L_ground_torque_x	   L_ground_torque_y	   L_ground_torque_z	   R_ground_torque_x	   R_ground_torque_y	   R_ground_torque_z	
          2.63600000	          0.00000000	          0.00000000	          0.00000000	          0.00000000	          0.00000000	          0.00000000	          0.00000000	          0.00000000	          0.00000000	          0.00000000	          0.00000000	          0.00000000	          0.00000000	          0.00000000	          0.00000000	          0.00000000	          0.00000000	          0.00000000	
          2.63700000	          0.00000000	          0.00000000	          0.00000000	          0.00000000	          0.00000000	          0.00000000	          0.00000000	          0.00000000	          0.00000000	          0.00000000	          0.00000000	          0.00000000	          0.00000000	          0.00000000	          0.00000000	          0.00000000	          0.00000000	          0.00000000	
          2.63800000	          0.00000000	          0.00000000	          0.00000000	          0.00000000	          0.00000000	          0.00000000	          0.00000000	          0.00000000	          0.00000000	          0.00000000	          0.00000000	          0.00000000	          0.00000000	          0.00000000	          0.00000000	          0.00000000	          0.00000000	          0.00000000	
          2.63900000	          0.00000000	          0.00000000	          0.00000000	          0.00000000	          0.00000000	          0.00000000	          0.00000000	          0.00000000	          0.00000000	          0.00000000	          0.00000000	          0.00000000	          0.00000000	          0.00000000	          0.00000000	          0.00000000	          0.00000000	          0.00000000	
          2.64000000	          0.00000000	          0.00000000	          0.00000000	          0.00000000	          0.00000000	          0.00000000	          0.00000000	          0.00000000	          0.00000000	          0.00000000	          0.00000000	          0.00000000	          0.00000000	          0.00000000	          0.00000000	          0.00000000	          0.00000000	          0.00000000	
          2.64100000	          0.00000000	          0.00000000	          0.00000000	          0.00000000	          0.00000000	          0.00000000	          0.00000000	          0.00000000	          0.00000000	          0.00000000	          0.00000000	          0.00000000	          0.00000000	          0.00000000	          0.00000000	          0.00000000	          0.00000000	          0.00000000	
          2.64200000	          0.00000000	          0.00000000	          0.00000000	          0.00000000	          0.00000000	          0.00000000	          3.05845436	         12.74983424	         -4.66829533	         -0.43018992	          0.00000000	         -0.05643076	          0.00000000	          0.00000000	          0.00000000	          0.00000000	          0.13380638	          0.00000000	
          2.64300000	          0.00000000	          0.00000000	          0.00000000	          0.00000000	          0.00000000	          0.00000000	          4.84928146	         20.48254926	         -6.68232227	         -0.42380442	          0.00000000	         -0.05853935	          0.00000000	          0.00000000	          0.00000000	          0.00000000	          0.15321152	          0.00000000	
          2.64400000	          0.00000000	          0.00000000	          0.00000000	          0.00000000	          0.00000000	          0.00000000	          6.86495576	         29.81643849	         -8.62808202	         -0.41835029	          0.00000000	         -0.06031125	          0.00000000	          0.00000000	          0.00000000	          0.00000000	          0.15676252	          0.00000000	
          2.64500000	          0.00000000	          0.00000000	          0.00000000	          0.00000000	          0.00000000	          0.00000000	          9.08436468	         41.14323045	        -10.47280831	         -0.41393340	          0.00000000	         -0.06157289	          0.00000000	          0.00000000	          0.00000000	          0.00000000	          0.14869413	          0.00000000	
          2.64600000	          0.00000000	          0.00000000	          0.00000000	          0.00000000	          0.00000000	          0.00000000	         11.55273645	         55.16942295	        -12.26615356	         -0.41070362	          0.00000000	         -0.06231209	          0.00000000	          0.00000000	          0.00000000	          0.00000000	          0.13883613	          0.00000000	
          2.64700000	          0.00000000	          0.00000000	          0.00000000	          0.00000000	          0.00000000	          0.00000000	         14.31037495	         72.73000600	        -14.03562236	         -0.40849387	          0.00000000	         -0.06271509	          0.00000000	          0.00000000	          0.00000000	          0.00000000	          0.13877679	          0.00000000	
          2.64800000	          0.00000000	          0.00000000	          0.00000000	          0.00000000	          0.00000000	          0.00000000	         17.34411033	         94.62458723	        -15.73248938	         -0.40695120	          0.00000000	         -0.06285651	          0.00000000	          0.00000000	          0.00000000	          0.00000000	          0.15347178	          0.00000000	
          2.64900000	          0.00000000	          0.00000000	          0.00000000	          0.00000000	          0.00000000	          0.00000000	         20.55682473	        121.37883849	        -17.23439916	         -0.40574802	          0.00000000	         -0.06262696	          0.00000000	          0.00000000	          0.00000000	          0.00000000	          0.17748606	          0.00000000	
          2.65000000	          0.00000000	          0.00000000	          0.00000000	          0.00000000	          0.00000000	          0.00000000	         23.73875583	        152.91062561	        -18.38385825	         -0.40468508	          0.00000000	         -0.06198173	          0.00000000	          0.00000000	          0.00000000	          0.00000000	          0.20198551	          0.00000000	
